<svg xmlns="http://www.w3.org/2000/svg" viewBox="0 0 640 640">
  <!--g fill="none" stroke="#c39a67">
      <g stroke-width="2"-->
  <!-- kártya -->
  <rect stroke-width="1" stroke="#c39a67" fill="none" vector-effect="non-scaling-stroke" x="64" y="128" width="512"
        height="384" rx="64"/>
  <!-- aláíráscsíkok -->
  <!--line vector-effect="non-scaling-stroke" x1="128" y1="424" x2="224" y2="424"/>
  <line vector-effect="non-scaling-stroke" x1="272" y1="424" x2="384" y2="424"/-->

  <!--mágnescsík-->
  <path fill="#c39a67" d="M64 224H576V272H64z"/>
  <!--aláíráscsík 1-->
  <path fill="#c39a67"
        d="M200 400A24 24 0 0 1 224 424A24 24 0 0 1 200 448H152A24 24 0 0 1 128 424A24 24 0 0 1 152 400z"/>
  <!--aláírás 2-->
  <path fill="#c39a67"
        d="M360 400A24 24 0 0 1 384 424A24 24 0 0 1 360 448H296A24 24 0 0 1 272 424A24 24 0 0 1 296 400z"/>
  <!--/g-->
  <!-- mágnescsík -->
  <!--g stroke-width="4">
      <line vector-effect="non-scaling-stroke" x1="64" y1="248" x2="576" y2="248"/>
  </g>
</g-->
</svg>